<svg width="24" height="24" viewBox="0 0 24 24" fill="none" xmlns="http://www.w3.org/2000/svg">
<path d="M0.0985795 11.756C0.0978634 13.8237 0.638141 15.8424 1.66511 17.6216L0 23.7011L6.22173 22.0698C7.93601 23.0045 9.86606 23.4973 11.8301 23.498H11.8351C18.3033 23.498 23.5688 18.2342 23.5716 11.7654C23.5727 8.63029 22.3528 5.68234 20.1372 3.46466C17.9212 1.24722 14.9747 0.0252386 11.8351 0.0239258C5.36578 0.0239258 0.101205 5.28695 0.0985795 11.756ZM3.80366 17.3152L3.57142 16.9464C2.59481 15.3936 2.07936 13.5992 2.08007 11.7567C2.08222 6.37991 6.45803 2.00554 11.8388 2.00554C14.4445 2.00661 16.8935 3.02236 18.7354 4.86542C20.5772 6.70859 21.5907 9.15876 21.59 11.7647C21.5876 17.1415 17.2117 21.5165 11.8351 21.5165H11.8313C10.0806 21.5156 8.36374 21.0455 6.86631 20.1571L6.50995 19.9457L2.81787 20.9137L3.80366 17.3152Z" fill="#094284"/>
<path d="M8.9014 6.8512C8.68168 6.36284 8.45051 6.35305 8.24154 6.34446C8.07051 6.33718 7.87491 6.33765 7.67954 6.33765C7.48393 6.33765 7.16623 6.41118 6.89759 6.70453C6.6287 6.998 5.87109 7.70739 5.87109 9.15016C5.87109 10.593 6.92205 11.9872 7.06849 12.1831C7.21516 12.3786 9.09724 15.4341 12.0779 16.6095C14.5552 17.5863 15.0593 17.392 15.5969 17.3431C16.1346 17.2943 17.332 16.634 17.5763 15.9492C17.8207 15.2645 17.8207 14.6775 17.7474 14.555C17.6741 14.4328 17.4785 14.3594 17.1853 14.2128C16.8919 14.0661 15.4503 13.3566 15.1815 13.2587C14.9126 13.161 14.7171 13.1122 14.5215 13.4058C14.326 13.699 13.7644 14.3594 13.5932 14.555C13.4222 14.7509 13.2511 14.7754 12.9578 14.6287C12.6645 14.4816 11.72 14.1722 10.5996 13.1733C9.72775 12.396 9.13925 11.4361 8.96811 11.1425C8.79709 10.8493 8.94985 10.6904 9.09689 10.5442C9.22864 10.4128 9.39024 10.2018 9.53691 10.0307C9.68323 9.85943 9.73204 9.73722 9.82979 9.54161C9.92765 9.34588 9.87872 9.17462 9.80544 9.02795C9.73204 8.88127 9.16217 7.4311 8.9014 6.8512Z" fill="#094284"/>
</svg>
