<svg width="24" height="24" viewBox="0 0 24 24" fill="none" xmlns="http://www.w3.org/2000/svg">
<path d="M14.1875 9.75007C14.4375 9.5834 14.6042 9.56256 14.6875 9.68757C14.7708 9.81257 14.7083 9.97923 14.5 10.1876C12.5625 12.1876 11.125 13.3126 10.3125 14.2501C9.9375 14.6668 10.0417 15.0834 10.625 15.5001L14.5 18.1251C16.0625 19.1876 16.5625 18.3126 16.75 17.2501C17.4583 13.4584 17.9583 10.3126 18.25 7.81255C18.375 6.87505 18.0625 6.37504 16.875 6.75005C15.75 7.08338 11.7083 8.77089 4.75 11.8126C3.4375 12.3126 3.6875 12.8751 4.4375 13.1251C5.1875 13.3751 5.75 13.5626 6.5 13.7501C7.25 13.9376 7.75 14.0001 8.625 13.4376M12.0625 0C15.2396 0.0165479 18.2805 1.29241 20.5184 3.54779C22.7562 5.80317 24.0082 8.85398 24 12.0312C23.9917 15.2084 22.7238 18.2526 20.4742 20.4963C18.2247 22.74 15.1772 24 12 24C8.82282 24 5.77531 22.74 3.52577 20.4963C1.27624 18.2526 0.00831469 15.2084 4.0748e-05 12.0312C-0.0082332 8.85398 1.24382 5.80317 3.48164 3.54779C5.71945 1.29241 8.76036 0.0165479 11.9375 0" fill="#094284"/>
</svg>
