<svg width="30" height="31" viewBox="0 0 30 31" fill="none" xmlns="http://www.w3.org/2000/svg">
<path d="M17.7344 12.4298C18.0469 12.2214 18.2552 12.1954 18.3594 12.3516C18.4635 12.5079 18.3854 12.7162 18.125 12.9766C15.7031 15.4767 13.9062 16.8829 12.8906 18.0548C12.4219 18.5756 12.5521 19.0965 13.2812 19.6173L18.125 22.8986C20.0781 24.2267 20.7031 23.133 20.9375 21.8048C21.8229 17.0652 22.4479 13.1329 22.8125 10.0079C22.9688 8.836 22.5781 8.21099 21.0938 8.67974C19.6875 9.09641 14.6354 11.2058 5.9375 15.0079C4.29688 15.6329 4.60938 16.336 5.54688 16.6485C6.48438 16.9611 7.1875 17.1954 8.125 17.4298C9.0625 17.6642 9.6875 17.7423 10.7812 17.0392M15.0781 0.242188C19.0496 0.262872 22.8507 1.8577 25.648 4.67693C28.4452 7.49615 30.0103 11.3097 30 15.2811C29.9896 19.2526 28.4047 23.0579 25.5928 25.8626C22.7809 28.6672 18.9715 30.2422 15 30.2422C11.0285 30.2422 7.21913 28.6672 4.40722 25.8626C1.5953 23.0579 0.0103934 19.2526 5.09349e-05 15.2811C-0.0102915 11.3097 1.55478 7.49615 4.35205 4.67693C7.14932 1.8577 10.9504 0.262872 14.9219 0.242188" fill="white"/>
</svg>
