<svg width="30" height="31" viewBox="0 0 30 31" fill="none" xmlns="http://www.w3.org/2000/svg">
<path d="M0.125465 14.9317C0.124553 17.5634 0.812179 20.1325 2.11923 22.397L0 30.1346L7.91856 28.0584C10.1004 29.248 12.5568 29.8752 15.0565 29.8761H15.0629C23.2951 29.8761 29.9967 23.1767 30.0002 14.9437C30.0016 10.9536 28.4491 7.20162 25.6291 4.37912C22.8088 1.55692 19.0586 0.00167084 15.0629 0C6.82917 0 0.128806 6.69839 0.125465 14.9317ZM4.84103 22.0071L4.54544 21.5377C3.30249 19.5614 2.64646 17.2777 2.64737 14.9326C2.6501 8.08944 8.21931 2.52205 15.0676 2.52205C18.3839 2.52342 21.5008 3.8162 23.845 6.1619C26.1892 8.50776 27.4791 11.6261 27.4782 14.9428C27.4751 21.7861 21.9058 27.3542 15.0629 27.3542H15.0581C12.8299 27.353 10.6448 26.7547 8.73894 25.624L8.28538 25.355L3.58638 26.587L4.84103 22.0071Z" fill="white"/>
<path d="M11.3294 8.68926C11.0498 8.06771 10.7556 8.05525 10.4896 8.04432C10.2719 8.03505 10.023 8.03565 9.77431 8.03565C9.52536 8.03565 9.12101 8.12923 8.7791 8.50258C8.43688 8.87609 7.47266 9.77895 7.47266 11.6152C7.47266 13.4516 8.81024 15.226 8.99661 15.4753C9.18329 15.7241 11.5787 19.6129 15.3722 21.1089C18.5251 22.3522 19.1667 22.1049 19.851 22.0426C20.5353 21.9805 22.0592 21.14 22.3702 20.2685C22.6812 19.3971 22.6812 18.65 22.588 18.494C22.4947 18.3385 22.2458 18.2451 21.8726 18.0586C21.4992 17.8719 19.6643 16.9689 19.3222 16.8443C18.98 16.7199 18.7312 16.6578 18.4823 17.0315C18.2335 17.4047 17.5186 18.2451 17.3008 18.494C17.0832 18.7435 16.8654 18.7746 16.4921 18.5879C16.1188 18.4006 14.9167 18.0069 13.4907 16.7356C12.3811 15.7463 11.6321 14.5246 11.4143 14.1509C11.1967 13.7777 11.3911 13.5756 11.5782 13.3895C11.7459 13.2222 11.9516 12.9537 12.1382 12.7359C12.3245 12.5179 12.3866 12.3624 12.511 12.1134C12.6355 11.8643 12.5733 11.6463 12.48 11.4597C12.3866 11.273 11.6613 9.42732 11.3294 8.68926Z" fill="white"/>
</svg>
