<svg width="16" height="16" viewBox="0 0 16 16" fill="none" xmlns="http://www.w3.org/2000/svg">
<path d="M9.56197 6.65098C9.72599 6.54163 9.83533 6.52796 9.89001 6.60997C9.94468 6.69198 9.90368 6.80133 9.76699 6.93801C8.49585 8.25017 7.55274 8.98826 7.01968 9.60333C6.77365 9.8767 6.84199 10.1501 7.2247 10.4234L9.76699 12.1456C10.7921 12.8427 11.1201 12.2687 11.2432 11.5716C11.7079 9.08394 12.0359 7.02002 12.2273 5.37982C12.3093 4.76475 12.1043 4.43671 11.3252 4.68274C10.5871 4.90143 7.93545 6.00857 3.37026 8.00414C2.50916 8.33218 2.67318 8.70123 3.16524 8.86524C3.65729 9.02927 4.02634 9.15228 4.51839 9.2753C5.01045 9.39831 5.33849 9.43931 5.91255 9.07027M8.16781 0.254204C10.2523 0.26506 12.2473 1.10212 13.7155 2.58182C15.1837 4.06152 16.0051 6.06307 15.9997 8.14755C15.9943 10.232 15.1624 12.2293 13.6865 13.7013C12.2107 15.1733 10.2113 16 8.12681 16C6.04234 16 4.04294 15.1733 2.56708 13.7013C1.09122 12.2293 0.259361 10.232 0.253933 8.14755C0.248505 6.06307 1.06995 4.06152 2.53812 2.58182C4.0063 1.10212 6.00136 0.26506 8.0858 0.254204" fill="#094284"/>
</svg>
