<svg width="16" height="16" viewBox="0 0 16 16" fill="none" xmlns="http://www.w3.org/2000/svg">
<path d="M0.325678 7.83698C0.325199 9.21826 0.686104 10.5667 1.37212 11.7552L0.259827 15.8164L4.41593 14.7266C5.56107 15.351 6.85035 15.6802 8.16234 15.6807H8.16569C12.4864 15.6807 16.0038 12.1644 16.0056 7.84328C16.0063 5.74904 15.1915 3.77981 13.7114 2.29841C12.2312 0.817158 10.2629 0.00087695 8.16569 0C3.84416 0 0.327432 3.51569 0.325678 7.83698ZM2.80067 11.5505L2.64553 11.3042C1.99316 10.2669 1.64884 9.0683 1.64931 7.83746C1.65075 4.24579 4.57378 1.32372 8.16816 1.32372C9.90875 1.32443 11.5447 2.00295 12.775 3.23411C14.0054 4.46535 14.6824 6.10206 14.6819 7.8428C14.6803 11.4346 11.7572 14.357 8.16569 14.357H8.16314C6.99369 14.3564 5.8468 14.0424 4.84651 13.4489L4.60846 13.3077L2.14216 13.9543L2.80067 11.5505Z" fill="#094284"/>
<path d="M6.20612 4.56063C6.05936 4.2344 5.90493 4.22787 5.76534 4.22213C5.6511 4.21726 5.52043 4.21758 5.38992 4.21758C5.25926 4.21758 5.04704 4.26669 4.86758 4.46265C4.68796 4.65869 4.18188 5.13256 4.18188 6.09633C4.18188 7.06018 4.88392 7.9915 4.98174 8.12232C5.07972 8.25291 6.33695 10.294 8.32802 11.0792C9.98283 11.7317 10.3196 11.6019 10.6787 11.5692C11.0379 11.5366 11.8377 11.0955 12.0009 10.6381C12.1642 10.1807 12.1642 9.78861 12.1153 9.70673C12.0663 9.6251 11.9356 9.57607 11.7398 9.47817C11.5438 9.38019 10.5808 8.90624 10.4012 8.84086C10.2216 8.77557 10.091 8.74296 9.96035 8.93908C9.82976 9.13496 9.45459 9.57607 9.34026 9.70673C9.22602 9.83764 9.1117 9.85398 8.91582 9.756C8.71986 9.6577 8.08894 9.45106 7.3405 8.78378C6.75812 8.26455 6.36501 7.62334 6.25069 7.42722C6.13645 7.23134 6.23849 7.12523 6.33671 7.02757C6.42472 6.9398 6.53267 6.79885 6.63065 6.68452C6.72839 6.57012 6.76099 6.48849 6.82629 6.35782C6.89166 6.22707 6.85897 6.11267 6.81002 6.01469C6.76099 5.91671 6.38032 4.948 6.20612 4.56063Z" fill="#094284"/>
</svg>
