<svg width="22" height="21" viewBox="0 0 22 21" fill="none" xmlns="http://www.w3.org/2000/svg">
<mask id="mask0_225_502" style="mask-type:luminance" maskUnits="userSpaceOnUse" x="0" y="3" width="17" height="18">
<path d="M0 3.80896H16.8437V20.6513H0V3.80896Z" fill="white"/>
</mask>
<g mask="url(#mask0_225_502)">
<path d="M15.5011 8.5975V15.8621C15.5011 17.7616 13.9545 19.307 12.0537 19.307H4.78426C2.88345 19.307 1.33709 17.7616 1.33709 15.8621V8.5975C1.33709 6.69791 2.88345 5.15258 4.78426 5.15258H12.0537C12.3063 5.15258 12.5524 5.18061 12.7895 5.23229C12.9327 5.06898 13.076 4.90894 13.2181 4.75483C13.4007 4.55724 13.5962 4.35484 13.8013 4.14937C13.2595 3.93612 12.6704 3.81763 12.0537 3.81763H4.78426C2.1468 3.81763 0.0012207 5.96177 0.0012207 8.5975V15.8621C0.0012207 18.4978 2.1468 20.6419 4.78426 20.6419H12.0537C14.6912 20.6419 16.8369 18.4978 16.8369 15.8621V8.5975C16.8369 8.04555 16.7417 7.5155 16.5687 7.02167C16.2005 7.46331 15.8381 7.91304 15.492 8.36184C15.4973 8.43981 15.5011 8.5183 15.5011 8.5975Z" fill="#094284"/>
</g>
<path d="M2.15651 10.6114C2.32197 10.8807 3.32467 11.9922 4.6324 13.5364C6.19543 15.3818 7.95759 17.4609 8.16399 17.6965C8.5427 18.1292 8.82154 17.8305 9.38822 16.6982C10.1728 15.13 11.7899 11.6932 14.063 8.55619C16.3361 5.41937 19.7459 1.95798 20.5576 1.30892C21.3695 0.659967 21.7483 0.227331 21.2071 0.011115C20.6658 -0.205408 16.4394 2.78181 13.9734 5.4515C11.3253 8.31828 8.45644 12.9983 7.74547 13.1087C7.17572 13.1969 4.41986 11.1313 3.6384 10.646C2.73117 10.0826 1.72582 9.91089 2.15651 10.6114Z" fill="#094284"/>
</svg>
